<svg width="8" height="11" viewBox="0 0 8 11" fill="none" xmlns="http://www.w3.org/2000/svg">
<path fill-rule="evenodd" clip-rule="evenodd" d="M6.50001 0.499999L4.00001 3L1.50001 0.499999C1.22387 0.223857 0.776157 0.223857 0.500015 0.499999C0.223872 0.776142 0.223872 1.22386 0.500014 1.5L3.29291 4.29289C3.68343 4.68342 4.3166 4.68342 4.70712 4.29289L7.50001 1.5C7.77616 1.22386 7.77616 0.776142 7.50001 0.499999C7.22387 0.223857 6.77616 0.223857 6.50001 0.499999ZM6.50001 6.5L4.00001 9L1.50001 6.5C1.22387 6.22386 0.776157 6.22386 0.500015 6.5C0.223872 6.77614 0.223872 7.22386 0.500014 7.5L3.29291 10.2929C3.68343 10.6834 4.3166 10.6834 4.70712 10.2929L7.50001 7.5C7.77616 7.22386 7.77616 6.77614 7.50001 6.5C7.22387 6.22386 6.77616 6.22386 6.50001 6.5Z" fill="#41F6D7"/>
</svg>
